# xmcd CD database file
#
# Track frame offsets:
#	150
#	23800
#	45295
#	67587
#	89915
#	114632
#	133482
#	156320
#
# Disc length: 2387 seconds
#
# Revision: 0
# Processed by: cddbd v1.4PL0 Copyright (c) Steve Scherf et al.
# Submitted via: NeoAudio 9.9.9
#
DISCID=69095108
DTITLE=Jesús Enríquez - Nada será Igual
DYEAR=1996
DGENRE=Salsa
TTITLE0=Ma va a Extrañar
TTITLE1=Como Fiera, como Dama
TTITLE2=Lejos de Tí
TTITLE3=A qué  Te Sabe  la Noche sin Mi
TTITLE4=Sin Sol ni Luna
TTITLE5=En este Lado del Mar (Vivir en el Mar Muerto)
TTITLE6=Que Te Vaya Bonito
TTITLE7=Al Final del Camino
EXTD=YEAR: 1996
EXTT0=
EXTT1=
EXTT2=
EXTT3=
EXTT4=
EXTT5=
EXTT6=
EXTT7=
PLAYORDER=
